TITLE ""
FILE "DISC1Track22.mp3" MP3
  TRACK 01 AUDIO
    TITLE "DISC1Track22_01"
    INDEX 01 00:00:00
  TRACK 02 AUDIO
    TITLE "DISC1Track22_02"
    INDEX 01 00:01:37
  TRACK 03 AUDIO
    TITLE "DISC1Track22_03"
    INDEX 01 00:01:51
  TRACK 04 AUDIO
    TITLE "DISC1Track22_04"
    INDEX 01 00:05:13
  TRACK 05 AUDIO
    TITLE "DISC1Track22_05"
    INDEX 01 00:08:29
  TRACK 06 AUDIO
    TITLE "DISC1Track22_06"
    INDEX 01 00:11:08
  TRACK 07 AUDIO
    TITLE "DISC1Track22_07"
    INDEX 01 00:11:26
  TRACK 08 AUDIO
    TITLE "DISC1Track22_08"
    INDEX 01 00:15:08
  TRACK 09 AUDIO
    TITLE "DISC1Track22_09"
    INDEX 01 00:18:36
  TRACK 10 AUDIO
    TITLE "DISC1Track22_10"
    INDEX 01 00:21:28
  TRACK 11 AUDIO
    TITLE "DISC1Track22_11"
    INDEX 01 00:21:44
  TRACK 12 AUDIO
    TITLE "DISC1Track22_12"
    INDEX 01 00:24:62
  TRACK 13 AUDIO
    TITLE "DISC1Track22_13"
    INDEX 01 00:27:52
  TRACK 14 AUDIO
    TITLE "DISC1Track22_14"
    INDEX 01 00:30:09
  TRACK 15 AUDIO
    TITLE "DISC1Track22_15"
    INDEX 01 00:30:25
  TRACK 16 AUDIO
    TITLE "DISC1Track22_16"
    INDEX 01 00:34:17
  TRACK 17 AUDIO
    TITLE "DISC1Track22_17"
    INDEX 01 00:38:66
  TRACK 18 AUDIO
    TITLE "DISC1Track22_18"
    INDEX 01 00:43:04
  TRACK 19 AUDIO
    TITLE "DISC1Track22_19"
    INDEX 01 00:43:20
  TRACK 20 AUDIO
    TITLE "DISC1Track22_20"
    INDEX 01 00:46:61
  TRACK 21 AUDIO
    TITLE "DISC1Track22_21"
    INDEX 01 00:50:08
  TRACK 22 AUDIO
    TITLE "DISC1Track22_22"
    INDEX 01 00:52:72
  TRACK 23 AUDIO
    TITLE "DISC1Track22_23"
    INDEX 01 00:53:12
  TRACK 24 AUDIO
    TITLE "DISC1Track22_24"
    INDEX 01 00:55:00
  TRACK 25 AUDIO
    TITLE "DISC1Track22_25"
    INDEX 01 00:57:14
  TRACK 26 AUDIO
    TITLE "DISC1Track22_26"
    INDEX 01 00:59:03
  TRACK 27 AUDIO
    TITLE "DISC1Track22_27"
    INDEX 01 00:59:17
  TRACK 28 AUDIO
    TITLE "DISC1Track22_28"
    INDEX 01 01:02:25
  TRACK 29 AUDIO
    TITLE "DISC1Track22_29"
    INDEX 01 01:04:71
  TRACK 30 AUDIO
    TITLE "DISC1Track22_30"
    INDEX 01 01:07:09
  TRACK 31 AUDIO
    TITLE "DISC1Track22_31"
    INDEX 01 01:07:18
  TRACK 32 AUDIO
    TITLE "DISC1Track22_32"
    INDEX 01 01:08:67
  TRACK 33 AUDIO
    TITLE "DISC1Track22_33"
    INDEX 01 01:11:08
  TRACK 34 AUDIO
    TITLE "DISC1Track22_34"
    INDEX 01 01:12:72
  TRACK 35 AUDIO
    TITLE "DISC1Track22_35"
    INDEX 01 01:13:15
  TRACK 36 AUDIO
    TITLE "DISC1Track22_36"
    INDEX 01 01:16:15
  TRACK 37 AUDIO
    TITLE "DISC1Track22_37"
    INDEX 01 01:18:54
  TRACK 38 AUDIO
    TITLE "DISC1Track22_38"
    INDEX 01 01:20:72
  TRACK 39 AUDIO
    TITLE "DISC1Track22_39"
    INDEX 01 01:21:13
  TRACK 40 AUDIO
    TITLE "DISC1Track22_40"
    INDEX 01 01:25:26
  TRACK 41 AUDIO
    TITLE "DISC1Track22_41"
    INDEX 01 01:28:68
  TRACK 42 AUDIO
    TITLE "DISC1Track22_42"
    INDEX 01 01:32:01
  TRACK 43 AUDIO
    TITLE "DISC1Track22_43"
    INDEX 01 01:32:16
  TRACK 44 AUDIO
    TITLE "DISC1Track22_44"
    INDEX 01 01:35:09
  TRACK 45 AUDIO
    TITLE "DISC1Track22_45"
    INDEX 01 01:38:62
  TRACK 46 AUDIO
    TITLE "DISC1Track22_46"
    INDEX 01 01:42:09
  TRACK 47 AUDIO
    TITLE "DISC1Track22_47"
    INDEX 01 01:42:25
  TRACK 48 AUDIO
    TITLE "DISC1Track22_48"
    INDEX 01 01:47:73
  TRACK 49 AUDIO
    TITLE "DISC1Track22_49"
    INDEX 01 01:52:72
  TRACK 50 AUDIO
    TITLE "DISC1Track22_50"
    INDEX 01 01:57:34
